PathFileType	4	(X/Y/Z)	Patient4_TMGait_0pt4_02_right_18.trc.trc
DataRate	CameraRate	NumFrames	NumMarkers	Units	OrigDataRate	OrigDataStartFrame	OrigNumFrames
73.298429319372	73.298429319372	4	33	mm	73.298429319372	18	       141
Frame#	Time	Sacral			L.Shoulder			Chest			R.Shoulder			Neck			R.ASIS			L.ASIS			R.Thigh.Superior			R.Thigh.Lateral			R.Thigh.Inferior			R.Patella			L.Thigh.Superior			L.Thigh.Lateral			L.Thigh.Inferior			L.Patella			L.Shank.Superior			L.Shank.Lateral			L.Shank.Inferior			R.Shank.Superior			R.Shank.Lateral			R.Shank.Inferior			R.Heel			R.Midfoot.Superior			R.Midfoot.Lateral			R.Toe			L.Heel			L.Midfoot.Lateral			L.Midfoot.Superior			L.Toe			L.Elbow			L.Wrist			R.Elbow			R.Wrist			
		X1	Y1	Z1	X2	Y2	Z2	X3	Y3	Z3	X4	Y4	Z4	X5	Y5	Z5	X6	Y6	Z6	X7	Y7	Z7	X8	Y8	Z8	X9	Y9	Z9	X10	Y10	Z10	X11	Y11	Z11	X12	Y12	Z12	X13	Y13	Z13	X14	Y14	Z14	X15	Y15	Z15	X16	Y16	Z16	X17	Y17	Z17	X18	Y18	Z18	X19	Y19	Z19	X20	Y20	Z20	X21	Y21	Z21	X22	Y22	Z22	X23	Y23	Z23	X24	Y24	Z24	X25	Y25	Z25	X26	Y26	Z26	X27	Y27	Z27	X28	Y28	Z28	X29	Y29	Z29	X30	Y30	Z30	X31	Y31	Z31	X32	Y32	Z32	X33	Y33	Z33	

18	23.661928571429	851.952931666636	1005.845572739830	412.082097262199	1050.966822255289	1411.393368288407	197.101149392952	1131.009199720358	1367.336397004763	377.744978462305	1025.595618704893	1460.784609219212	529.340864608003	1020.349349727373	1492.792957737506	336.886333091201	1073.775140341292	951.944862362115	546.936563505404	1077.485132399263	966.282043453160	269.993661999968	1150.100842916856	773.837453455297	533.428993594031	1101.803972379227	656.380364188119	612.052552458449	1193.920295897832	613.291099766898	539.544968101312	1224.955250533144	535.806144844573	561.669362368511	1093.064335028725	745.544709696413	299.388130106860	985.496771430018	641.183662611529	235.294896644041	1057.250451736729	554.622705137666	295.831457470768	1047.373578509684	489.093186704264	304.149609373133	1019.239658914709	418.854011279363	298.380387132100	922.195925261116	305.910206193662	257.811247903294	979.859281617981	194.896747816067	326.476460454058	1213.303385937579	450.426001779421	576.205790220903	1165.263637811683	339.856986990110	647.397633609543	1238.767436471039	254.327195275324	602.384249058084	1154.874505298895	66.688250911195	585.899155091280	1317.442511886893	142.018971062535	622.556209036420	1240.524103491041	65.619230622049	657.381222424484	1441.854178600494	105.883605243913	644.274409333851	855.691468068227	38.525556292139	378.131384885074	928.867821057027	34.217337688049	296.495593830885	1011.102218938759	98.203823189030	320.954259921542	1140.093422736001	49.346843028328	295.055397953062	1103.103582195193	1056.643993388672	101.718433121453	1266.721537565166	851.544516846735	121.093588939550	894.840668315516	1157.730868149034	678.023023696714	915.667115374740	899.716991890398	721.109615795806	
19	23.675571428571	852.568037384935	1004.785188708618	413.313401525218	1050.287849469420	1411.126858576668	199.429764575754	1130.319354574379	1367.075837782612	380.069712942410	1024.349662559878	1459.840099311325	531.723781921811	1019.390987777810	1492.174370663254	339.336793883616	1074.412914452072	950.611642911180	548.144490934735	1078.404977079348	966.155194021504	271.176744739307	1150.774744947945	771.572160235909	534.103445145138	1101.122090098650	653.841095285431	611.575770969741	1193.052420381595	610.597374864116	539.198088094955	1222.886699179770	531.844836249517	560.959873160461	1092.201063609020	744.512458210547	299.879585295330	983.227103036547	641.155050376152	236.028357676023	1053.934746915414	553.815674788610	296.445531273200	1043.504044525551	488.436716643021	304.714263136423	1014.988723089512	418.627401399293	298.817504207189	917.564634595818	306.141071320571	257.988089798884	974.705460129663	194.755645687916	326.611571642276	1208.800724162491	445.506041582272	574.925865695368	1156.933500612194	336.270357639806	645.636562546660	1227.289315779781	248.343025127582	600.258135263295	1136.790254836099	63.846197602794	583.320965232716	1301.674740635526	133.906510294704	620.063631952801	1222.231487076923	60.352378734132	655.097151464151	1424.955221702571	93.753434031580	642.321309448665	850.171146821503	38.500755423593	378.130598242373	923.356115663002	34.187293175524	296.513008416393	1005.651641171465	98.053390470776	321.045147103104	1134.596325574717	49.197834521616	295.135414381960	1102.888854743862	1056.379428277350	104.063429076457	1266.343402369656	851.155691112137	123.571091862244	895.521020750849	1155.601659301657	679.895460695786	923.378915511849	897.987187231555	721.679856551645	
20	23.689214285714	853.402518143103	1003.622124820591	414.728026983923	1049.518406856256	1410.822458306814	202.011104438075	1129.714369179744	1366.780188322134	382.578499047838	1023.257151678590	1458.761572910107	534.397687401781	1018.443145101978	1491.489091632150	342.105027225374	1075.360055943349	949.116610509854	549.382984310770	1079.507231179218	965.979792972400	272.432855302063	1151.297439077137	768.723638940615	534.775665434026	1099.840712280076	650.900251331424	610.977999640107	1191.566518346590	607.376288158300	538.718247258679	1220.011277589552	527.432067874332	559.874776851740	1091.562691008765	743.403600252281	300.287973660458	981.122354112175	641.108857343165	236.796149705539	1050.803284993857	552.975456499600	297.041514545830	1039.825768854299	487.716520109217	305.270121224507	1010.912369087482	418.371912758737	299.248497252860	913.046488818603	306.380973760984	258.159289573762	969.600173450815	194.590930028394	326.726727329686	1203.532849287588	440.225552780437	573.384031813865	1147.937833623486	332.353203023876	643.628742268921	1215.183193571242	242.150586847156	597.828652956452	1118.366790327900	60.730705711469	580.722888239544	1285.358931946012	125.936953145366	617.057080995277	1203.713693028379	55.187115788739	652.646469402404	1407.663181128363	82.177705341539	639.742323488275	844.656125296590	38.471222164940	378.120122050124	917.848248215190	34.151151331754	296.526140053630	1000.208537252252	97.881805270516	321.135170166900	1129.103515470793	49.026080364527	295.212414459391	1102.508111677316	1056.091626172384	106.504045336534	1265.538317965521	850.520779160242	125.917203856635	896.590140061908	1153.237228015763	682.043352677017	931.823517218179	896.251419726984	722.432963388048	
21	23.702857142857	854.426626122294	1002.409045672607	416.302727533660	1048.708140105376	1410.509241173594	204.844715920523	1129.230116701287	1366.461750743699	385.274011604746	1022.366888432590	1457.581903055364	537.359760729347	1017.553964894367	1490.773195616753	345.187377509269	1076.570131400783	947.521051626005	550.661970555318	1080.763967451305	965.752504993340	273.777770602484	1151.580377445295	765.380009211059	535.461057132525	1097.906301071939	647.680120799817	610.299399778334	1189.404187966503	603.763369563402	538.121974920285	1216.329806855223	522.752095368725	558.445128962913	1091.159881253616	742.234765410042	300.679574206687	979.249992049032	641.039613079410	237.618309513726	1047.934296295607	552.111815729859	297.665773473491	1036.420733735299	486.931646809314	305.864148028999	1007.089863291350	418.078204993605	299.708874648402	908.701038347836	306.637256827355	258.350796687035	964.577273505107	194.399206445823	326.839764285628	1197.626444103886	434.819403152974	571.655776438301	1138.600296564246	328.273171848535	641.482080748376	1202.910309953729	236.032130173788	595.201225722662	1100.383082190933	57.460481118618	578.235152291608	1269.136751135626	118.531471524358	613.685150640026	1185.744196356307	50.403258440719	650.169550517821	1390.693910874344	71.821559967551	636.703706290368	839.148946716053	38.445353032230	378.098492915776	912.348010588204	34.118075013205	296.537873602917	994.777549610045	97.693897536396	321.227993773083	1123.618858096145	48.821683448643	295.285349664248	1101.912029835138	1055.792372244947	109.042110654592	1264.286904563167	849.674929550716	128.107952777351	898.095997015023	1150.683644761490	684.473461605817	940.942821857681	894.574087208629	723.371328000908	
